<?xml version="1.0" encoding="UTF-8"?>
<svg width="196.252542px" height="48.3026022px" viewBox="0 0 196.252542 48.3026022" version="1.1" xmlns="http://www.w3.org/2000/svg" xmlns:xlink="http://www.w3.org/1999/xlink">
    <title>journ-logo</title>
    <g id="Page-1" stroke="none" stroke-width="1" fill="none" fill-rule="evenodd">
        <g id="Artboard" transform="translate(-0.997458, -0.002188)" fill="#FFFFFF" fill-rule="nonzero">
            <g id="journ-logo" transform="translate(0.997458, 0.002188)">
                <path d="M51.1525417,8.5678125 C51.6025417,8.1978125 51.6125417,7.5478125 51.1625417,7.1778125 L42.7925417,0.2278125 C42.4625417,-0.0421875 41.9925417,-0.0721875 41.6225417,0.1378125 C36.9225417,2.8078125 32.1325417,3.9078125 26.2225417,0.6978125 C26.1925417,0.6778125 26.1625417,0.6678125 26.1325417,0.6578125 C26.1125417,0.6478125 26.0925417,0.6378125 26.0725417,0.6278125 C26.0725417,0.6278125 26.0525417,0.6278125 26.0425417,0.6178125 C26.0225417,0.6178125 26.0025417,0.5978125 25.9725417,0.5978125 C25.9225417,0.5778125 25.8725417,0.5678125 25.8225417,0.5678125 C25.7925417,0.5678125 25.7725417,0.5678125 25.7425417,0.5678125 C25.7125417,0.5678125 25.6925417,0.5678125 25.6625417,0.5678125 C25.6125417,0.5678125 25.5625417,0.5878125 25.5125417,0.5978125 C25.4925417,0.5978125 25.4725417,0.6078125 25.4425417,0.6178125 C25.4325417,0.6178125 25.4225417,0.6178125 25.4125417,0.6278125 C25.3925417,0.6378125 25.3725417,0.6478125 25.3525417,0.6578125 C25.3225417,0.6678125 25.2925417,0.6878125 25.2725417,0.6978125 C19.3625417,3.9078125 14.5725417,2.8078125 9.87254166,0.1378125 C9.50254166,-0.0721875 9.03254166,-0.0421875 8.70254166,0.2278125 L0.332541663,7.1778125 C-0.117458337,7.5478125 -0.107458337,8.1978125 0.342541663,8.5678125 C5.11254166,12.4378125 6.44254166,19.7378125 3.16254166,24.5178125 C-1.63745834,31.5578125 0.0325416632,38.2678125 6.07254166,42.9278125 C11.7025417,47.2578125 19.6525417,44.4978125 25.0625417,48.1278125 C25.2825417,48.2678125 25.5225417,48.3178125 25.7525417,48.2978125 C25.9825417,48.3178125 26.2225417,48.2778125 26.4425417,48.1278125 C31.8625417,44.4878125 39.8125417,47.2578125 45.4325417,42.9278125 C51.4725417,38.2778125 53.1425417,31.5578125 48.3325417,24.5278125 C45.0625417,19.7478125 46.3925417,12.4478125 51.1525417,8.5778125 L51.1525417,8.5678125 Z M27.1225417,11.8178125 C27.1225417,10.9878125 27.7925417,10.3178125 28.6225417,10.3178125 L38.6125417,10.3178125 C39.4425417,10.3178125 40.1125417,10.9878125 40.1125417,11.8178125 L40.1125417,19.5278125 C40.1125417,20.3578125 39.4425417,21.0278125 38.6125417,21.0278125 L28.6225417,21.0278125 C27.7925417,21.0278125 27.1225417,20.3578125 27.1225417,19.5278125 L27.1225417,11.8178125 L27.1225417,11.8178125 Z M12.6325417,10.3178125 L22.4425417,10.3178125 C23.2725417,10.3178125 23.9425417,10.9878125 23.9425417,11.8178125 C23.9425417,12.6478125 23.2725417,13.3178125 22.4425417,13.3178125 L12.6325417,13.3178125 C11.8025417,13.3178125 11.1325417,12.6478125 11.1325417,11.8178125 C11.1325417,10.9878125 11.8025417,10.3178125 12.6325417,10.3178125 Z M12.6325417,18.0278125 L22.4425417,18.0278125 C23.2725417,18.0278125 23.9425417,18.6978125 23.9425417,19.5278125 C23.9425417,20.3578125 23.2725417,21.0278125 22.4425417,21.0278125 L12.6325417,21.0278125 C11.8025417,21.0278125 11.1325417,20.3578125 11.1325417,19.5278125 C11.1325417,18.6978125 11.8025417,18.0278125 12.6325417,18.0278125 Z M39.3025417,36.4478125 L12.6325417,36.4478125 C11.8025417,36.4478125 11.1325417,35.7778125 11.1325417,34.9478125 C11.1325417,34.1178125 11.8025417,33.4478125 12.6325417,33.4478125 L39.3025417,33.4478125 C40.1325417,33.4478125 40.8025417,34.1178125 40.8025417,34.9478125 C40.8025417,35.7778125 40.1325417,36.4478125 39.3025417,36.4478125 L39.3025417,36.4478125 Z M39.3025417,28.7378125 L12.6325417,28.7378125 C11.8025417,28.7378125 11.1325417,28.0678125 11.1325417,27.2378125 C11.1325417,26.4078125 11.8025417,25.7378125 12.6325417,25.7378125 L39.3025417,25.7378125 C40.1325417,25.7378125 40.8025417,26.4078125 40.8025417,27.2378125 C40.8025417,28.0678125 40.1325417,28.7378125 39.3025417,28.7378125 L39.3025417,28.7378125 Z" id="Shape"></path>
                <g id="Group" transform="translate(74.702542, 5.797812)">
                    <path d="M23.18,30.78 C22.23,28.6 21.75,26.09 21.75,23.26 C21.75,20.43 22.23,18.19 23.2,16.16 C24.17,14.13 25.61,12.54 27.52,11.39 C29.44,10.24 31.83,9.66 34.7,9.66 C37.57,9.66 39.96,10.24 41.87,11.39 C43.79,12.54 45.23,14.13 46.2,16.16 C47.17,18.19 47.65,20.56 47.65,23.26 C47.65,26.09 47.18,28.6 46.23,30.78 C45.28,32.96 43.85,34.66 41.93,35.88 C40.01,37.1 37.6,37.71 34.7,37.71 C31.8,37.71 29.39,37.1 27.47,35.88 C25.55,34.66 24.12,32.96 23.17,30.78 L23.18,30.78 Z M40.9,23.25 C40.9,20.55 40.38,18.44 39.33,16.92 C38.28,15.4 36.74,14.64 34.71,14.64 C32.68,14.64 31.13,15.4 30.09,16.92 C29.04,18.44 28.51,20.54 28.51,23.25 C28.51,26.18 29.03,28.48 30.09,30.15 C31.14,31.82 32.68,32.65 34.71,32.65 C36.74,32.65 38.28,31.82 39.33,30.15 C40.38,28.48 40.9,26.18 40.9,23.25 L40.9,23.25 Z" id="Shape"></path>
                    <path d="M67.8,10.3 L74.4,10.3 L74.4,37.05 L67.95,37.05 L67.95,33.3 C67.12,34.73 66,35.83 64.6,36.58 C63.2,37.33 61.65,37.7 59.95,37.7 C57.32,37.7 55.19,36.82 53.57,35.08 C51.95,33.33 51.15,30.92 51.15,27.85 L51.15,10.3 L57.75,10.3 L57.75,27.3 C57.75,28.93 58.14,30.22 58.93,31.15 C59.71,32.08 60.82,32.55 62.25,32.55 C63.48,32.55 64.59,32.21 65.58,31.52 C66.56,30.84 67.31,29.95 67.81,28.85 L67.81,10.3 L67.8,10.3 Z" id="Path"></path>
                    <path d="M79.2,10.3 L85.65,10.3 L85.65,15.2 C86.52,13.33 87.64,11.94 89.03,11.02 C90.41,10.1 91.91,9.64 93.51,9.64 C94.21,9.64 94.83,9.69 95.36,9.79 L94.66,16.39 C94.13,16.09 93.36,15.94 92.36,15.94 C90.86,15.94 89.52,16.4 88.33,17.32 C87.15,18.24 86.31,19.43 85.81,20.89 L85.81,37.04 L79.21,37.04 L79.21,10.29 L79.2,10.3 Z" id="Path"></path>
                    <path d="M98.25,10.3 L104.7,10.3 L104.7,13.95 C105.53,12.58 106.64,11.52 108.03,10.77 C109.41,10.02 110.97,9.65 112.7,9.65 C115.37,9.65 117.51,10.52 119.12,12.25 C120.74,13.98 121.55,16.38 121.55,19.45 L121.55,37.05 L114.95,37.05 L114.95,20 C114.95,18.33 114.56,17.04 113.78,16.12 C113,15.2 111.89,14.74 110.45,14.74 C109.18,14.74 108.06,15.08 107.07,15.76 C106.09,16.44 105.34,17.34 104.84,18.44 L104.84,37.04 L98.24,37.04 L98.24,10.29 L98.25,10.3 Z" id="Path"></path>
                    <path d="M10.4,-8.8817842e-16 L10.4,-8.8817842e-16 C10.4,-8.8817842e-16 4.54,-8.8817842e-16 4.54,-8.8817842e-16 L4.54,5.01 L10.4,5.01 L10.4,25.95 C10.4,28.15 9.95,29.73 9.05,30.7 C8.15,31.67 6.92,32.15 5.35,32.15 C4.55,32.15 3.73,32.03 2.87,31.77 C2.01,31.51 1.26,31.18 0.6,30.75 L-1.42108547e-14,36.45 C0.87,36.82 1.83,37.12 2.9,37.35 C3.97,37.58 5.12,37.7 6.35,37.7 C9.92,37.7 12.62,36.75 14.45,34.85 C16.28,32.95 17.2,30.33 17.2,27 L17.2,-8.8817842e-16 L10.4,-8.8817842e-16 L10.4,-8.8817842e-16 Z" id="Path"></path>
                </g>
            </g>
        </g>
    </g>
</svg>