<?xml version="1.0" encoding="UTF-8"?>
<svg id="Layer_1" data-name="Layer 1" xmlns="http://www.w3.org/2000/svg" viewBox="0 0 196.25 48.3">
  <defs>
    <style>
      .cls-1 {
        fill: #231f20;
      }
    </style>
  </defs>
  <path class="cls-1" d="M51.15,8.57c.45-.37.46-1.02.01-1.39L42.79.23c-.33-.27-.8-.3-1.17-.09-4.7,2.67-9.49,3.77-15.4.56-.03-.02-.06-.03-.09-.04-.02-.01-.04-.02-.06-.03,0,0-.02,0-.03-.01-.02,0-.04-.02-.07-.02-.05-.02-.1-.03-.15-.03-.03,0-.05,0-.08,0-.03,0-.05,0-.08,0-.05,0-.1.02-.15.03-.02,0-.04.01-.07.02-.01,0-.02,0-.03.01-.02.01-.04.02-.06.03-.03.01-.06.03-.08.04-5.91,3.21-10.7,2.11-15.4-.56-.37-.21-.84-.18-1.17.09L.33,7.18c-.45.37-.44,1.02.01,1.39,4.77,3.87,6.1,11.17,2.82,15.95C-1.64,31.56.03,38.27,6.07,42.93c5.63,4.33,13.58,1.57,18.99,5.2.22.14.46.19.69.17.23.02.47-.02.69-.17,5.42-3.64,13.37-.87,18.99-5.2,6.04-4.65,7.71-11.37,2.9-18.4-3.27-4.78-1.94-12.08,2.82-15.95ZM27.12,11.82c0-.83.67-1.5,1.5-1.5h9.99c.83,0,1.5.67,1.5,1.5v7.71c0,.83-.67,1.5-1.5,1.5h-9.99c-.83,0-1.5-.67-1.5-1.5v-7.71ZM12.63,10.32h9.81c.83,0,1.5.67,1.5,1.5s-.67,1.5-1.5,1.5h-9.81c-.83,0-1.5-.67-1.5-1.5s.67-1.5,1.5-1.5ZM12.63,18.03h9.81c.83,0,1.5.67,1.5,1.5s-.67,1.5-1.5,1.5h-9.81c-.83,0-1.5-.67-1.5-1.5s.67-1.5,1.5-1.5ZM39.3,36.45H12.63c-.83,0-1.5-.67-1.5-1.5s.67-1.5,1.5-1.5h26.67c.83,0,1.5.67,1.5,1.5s-.67,1.5-1.5,1.5ZM39.3,28.74H12.63c-.83,0-1.5-.67-1.5-1.5s.67-1.5,1.5-1.5h26.67c.83,0,1.5.67,1.5,1.5s-.67,1.5-1.5,1.5Z"/>
  <g>
    <path class="cls-1" d="M97.88,36.58c-.95-2.18-1.43-4.69-1.43-7.52s.48-5.07,1.45-7.1c.97-2.03,2.41-3.62,4.32-4.77,1.92-1.15,4.31-1.73,7.18-1.73s5.26.58,7.17,1.73c1.92,1.15,3.36,2.74,4.33,4.77.97,2.03,1.45,4.4,1.45,7.1,0,2.83-.47,5.34-1.42,7.52-.95,2.18-2.38,3.88-4.3,5.1-1.92,1.22-4.33,1.83-7.23,1.83s-5.31-.61-7.23-1.83c-1.92-1.22-3.35-2.92-4.3-5.1ZM115.6,29.05c0-2.7-.52-4.81-1.57-6.33-1.05-1.52-2.59-2.28-4.62-2.28s-3.58.76-4.62,2.28c-1.05,1.52-1.58,3.62-1.58,6.33,0,2.93.52,5.23,1.58,6.9,1.05,1.67,2.59,2.5,4.62,2.5s3.57-.83,4.62-2.5c1.05-1.67,1.57-3.97,1.57-6.9Z"/>
    <path class="cls-1" d="M142.5,16.1h6.6v26.75h-6.45v-3.75c-.83,1.43-1.95,2.53-3.35,3.28s-2.95,1.12-4.65,1.12c-2.63,0-4.76-.88-6.38-2.62-1.62-1.75-2.42-4.16-2.42-7.23v-17.55h6.6v17c0,1.63.39,2.92,1.18,3.85.78.93,1.89,1.4,3.32,1.4,1.23,0,2.34-.34,3.33-1.03.98-.68,1.73-1.57,2.23-2.67v-18.55Z"/>
    <path class="cls-1" d="M153.9,16.1h6.45v4.9c.87-1.87,1.99-3.26,3.38-4.18,1.38-.92,2.88-1.38,4.48-1.38.7,0,1.32.05,1.85.15l-.7,6.6c-.53-.3-1.3-.45-2.3-.45-1.5,0-2.84.46-4.03,1.38-1.18.92-2.02,2.11-2.52,3.57v16.15h-6.6v-26.75Z"/>
    <path class="cls-1" d="M172.95,16.1h6.45v3.65c.83-1.37,1.94-2.43,3.33-3.18,1.38-.75,2.94-1.12,4.67-1.12,2.67,0,4.81.87,6.42,2.6,1.62,1.73,2.43,4.13,2.43,7.2v17.6h-6.6v-17.05c0-1.67-.39-2.96-1.17-3.88-.78-.92-1.89-1.38-3.33-1.38-1.27,0-2.39.34-3.38,1.02-.98.68-1.73,1.58-2.23,2.68v18.6h-6.6v-26.75Z"/>
    <path class="cls-1" d="M85.1,5.8h0s-5.86,0-5.86,0v5.01h5.86v20.94c0,2.2-.45,3.78-1.35,4.75-.9.97-2.13,1.45-3.7,1.45-.8,0-1.62-.12-2.48-.38s-1.61-.59-2.27-1.02l-.6,5.7c.87.37,1.83.67,2.9.9,1.07.23,2.22.35,3.45.35,3.57,0,6.27-.95,8.1-2.85,1.83-1.9,2.75-4.52,2.75-7.85V5.8h-6.8Z"/>
  </g>
</svg>